<?xml version="1.0" encoding="UTF-8"?>
<svg width="24px" height="24px" viewBox="0 0 24 24" version="1.1" xmlns="http://www.w3.org/2000/svg" xmlns:xlink="http://www.w3.org/1999/xlink">
    <!-- Generator: Sketch 51.3 (57544) - http://www.bohemiancoding.com/sketch -->
    <title>Icons/ic_like</title>
    <desc>Created with Sketch.</desc>
    <defs></defs>
    <g id="Icons/ic_like" stroke="none" stroke-width="1" fill="none" fill-rule="evenodd">
        <path d="M10,18.5857864 L12.5857864,16 L18,16 C18.5522847,16 19,15.5522847 19,15 L19,7 C19,6.44771525 18.5522847,6 18,6 L6,6 C5.44771525,6 5,6.44771525 5,7 L5,15 C5,15.5522847 5.44771525,16 6,16 L10,16 L10,18.5857864 Z M13,17 L9,21 L9,17 L6,17 C4.8954305,17 4,16.1045695 4,15 L4,7 C4,5.8954305 4.8954305,5 6,5 L18,5 C19.1045695,5 20,5.8954305 20,7 L20,15 C20,16.1045695 19.1045695,17 18,17 L13,17 Z M9,10 C9.55228475,10 10,10.4477153 10,11 C10,11.5522847 9.55228475,12 9,12 C8.44771525,12 8,11.5522847 8,11 C8,10.4477153 8.44771525,10 9,10 Z M12,10 C12.5522847,10 13,10.4477153 13,11 C13,11.5522847 12.5522847,12 12,12 C11.4477153,12 11,11.5522847 11,11 C11,10.4477153 11.4477153,10 12,10 Z M15,10 C15.5522847,10 16,10.4477153 16,11 C16,11.5522847 15.5522847,12 15,12 C14.4477153,12 14,11.5522847 14,11 C14,10.4477153 14.4477153,10 15,10 Z" id="Combined-Shape" fill="#000000" fill-rule="nonzero"></path>
    </g>
</svg>