<?xml version="1.0" encoding="UTF-8"?>
<svg width="24px" height="24px" viewBox="0 0 24 24" version="1.1" xmlns="http://www.w3.org/2000/svg" xmlns:xlink="http://www.w3.org/1999/xlink">
    <!-- Generator: Sketch 51.3 (57544) - http://www.bohemiancoding.com/sketch -->
    <title>Shape</title>
    <desc>Created with Sketch.</desc>
    <defs></defs>
    <g id="Design" stroke="none" stroke-width="1" fill="none" fill-rule="evenodd">
        <g id="menu" transform="translate(-77.000000, -470.000000)" fill="#FFFFFF" fill-rule="nonzero">
            <g id="Group-4" transform="translate(77.000000, 470.000000)">
                <g id="e906">
                    <path d="M19.6640944,0.023437601 L4.38281378,0 C3.17968573,0 2.15234169,0.421875218 1.30078165,1.26562405 C0.449221619,2.10937609 0.023437601,3.13280813 0.023437601,4.33593618 L0,19.6172168 C0,20.8203449 0.425781618,21.8476889 1.27734405,22.6992489 C2.12890409,23.550809 3.14844013,23.976593 4.33593618,23.976593 L12.3281205,24.0000306 L12.3281205,14.6953102 L9.18749638,14.6953102 L9.18749638,11.0859341 L12.3281205,11.0859341 L12.3281205,8.41406195 C12.3281205,6.86718989 12.7578085,5.68358984 13.6171846,4.8632778 C14.4765606,4.04296577 15.6015607,3.63280575 16.9921847,3.63280575 C17.6484351,3.63280575 18.2343688,3.64843055 18.7500008,3.67968015 C19.2656256,3.71093055 19.6093768,3.74218016 19.7812488,3.77343056 L19.7812488,7.00780669 L17.8593767,7.00780669 C17.1093767,7.00780669 16.6210967,7.1718691 16.3945367,7.49999391 C16.1679743,7.82811873 16.0546927,8.24999394 16.0546927,8.76561797 L16.0546927,11.0859301 L19.6406288,11.0859301 L19.1718792,14.6953062 L16.0546951,14.6953062 L16.0546951,24.0000266 L19.6171912,24.0000266 C20.8203193,24.0000266 21.8476633,23.5781514 22.6992233,22.7344025 C23.5507834,21.8906505 23.9765674,20.8672185 23.9765674,19.6640904 L24.000005,4.38280978 C24.000005,3.17968173 23.5781298,2.15233769 22.7343809,1.30077765 C21.8906289,0.449217619 20.8671969,0.023433601 19.6640688,0.023433601 L19.6640944,0.023437601 Z" id="Shape"></path>
                </g>
            </g>
        </g>
    </g>
</svg>