<?xml version="1.0" encoding="UTF-8"?>
<svg width="16px" height="16px" viewBox="0 0 16 16" version="1.1" xmlns="http://www.w3.org/2000/svg" xmlns:xlink="http://www.w3.org/1999/xlink">
    <!-- Generator: Sketch 51.3 (57544) - http://www.bohemiancoding.com/sketch -->
    <title>Icons/ic_search_selected</title>
    <desc>Created with Sketch.</desc>
    <defs>
        <path d="M12.1478976,10.4906161 L15.3641747,13.7068931 L13.7068931,15.3641747 L10.5713355,12.228617 C9.57349908,12.9688915 8.33788667,13.4067797 7,13.4067797 C3.6862915,13.4067797 1,10.7204882 1,7.40677966 C1,4.09307116 3.6862915,1.40677966 7,1.40677966 C10.3137085,1.40677966 13,4.09307116 13,7.40677966 C13,8.53442641 12.688921,9.58941677 12.1478976,10.4906161 Z M7,11.4067797 C9.209139,11.4067797 11,9.61591866 11,7.40677966 C11,5.19764066 9.209139,3.40677966 7,3.40677966 C4.790861,3.40677966 3,5.19764066 3,7.40677966 C3,9.61591866 4.790861,11.4067797 7,11.4067797 Z" id="path-1"></path>
    </defs>
    <g id="Icons/ic_search_selected" stroke="none" stroke-width="1" fill="none" fill-rule="evenodd">
        <mask id="mask-2" fill="white">
            <use xlink:href="#path-1"></use>
        </mask>
        <use id="Combined-Shape" fill="#000000" fill-rule="nonzero" xlink:href="#path-1"></use>
    </g>
</svg>