<?xml version="1.0" encoding="UTF-8"?>
<svg width="100px" height="100px" viewBox="0 0 100 100" version="1.1" xmlns="http://www.w3.org/2000/svg" xmlns:xlink="http://www.w3.org/1999/xlink">
    <!-- Generator: Sketch 52.4 (67378) - http://www.bohemiancoding.com/sketch -->
    <title>Slice</title>
    <desc>Created with Sketch.</desc>
    <g id="Page-1" stroke="none" stroke-width="1" fill="none" fill-rule="evenodd">
        <g id="search" transform="translate(17.000000, 17.000000)" fill="#000000" fill-rule="nonzero">
            <path d="M65.703125,60.9375 L50.703125,45.9375 C52.526051,43.645822 53.98437,40.963557 55.078125,37.890625 C56.17188,34.817693 56.71875,31.6146 56.71875,28.28125 C56.71875,24.37498 55.963549,20.703142 54.453125,17.265625 C52.994784,13.828108 50.976575,10.833346 48.398438,8.28125 C45.8203,5.729154 42.812517,3.697924 39.375,2.1875 C35.937483,0.729159 32.265645,0 28.359375,0 C24.453105,0 20.781267,0.729159 17.34375,2.1875 C13.906233,3.697924 10.89845,5.729154 8.320312,8.28125 C5.742175,10.833346 3.723966,13.828108 2.265625,17.265625 C0.755201,20.703142 0,24.37498 0,28.28125 C0,32.239603 0.755201,35.937483 2.265625,39.375 C3.723966,42.812517 5.742175,45.807279 8.320312,48.359375 C10.89845,50.911471 13.906233,52.942701 17.34375,54.453125 C20.781267,55.911466 24.453105,56.640625 28.359375,56.640625 C31.692725,56.640625 34.843735,56.093755 37.8125,55 C40.781265,53.906245 43.515613,52.447926 46.015625,50.625 L61.015625,65.625 C61.38021,65.989585 61.783852,66.249999 62.226562,66.40625 C62.669273,66.562501 63.046873,66.640625 63.359375,66.640625 C63.671877,66.640625 64.049477,66.562501 64.492188,66.40625 C64.934898,66.249999 65.33854,65.989585 65.703125,65.625 C66.380212,64.947913 66.71875,64.166671 66.71875,63.28125 C66.71875,62.395829 66.380212,61.614587 65.703125,60.9375 Z M6.71875,28.28125 C6.71875,25.312485 7.26562,22.500013 8.359375,19.84375 C9.505214,17.23957 11.054678,14.947927 13.007812,12.96875 C14.960947,10.989573 17.265612,9.45313 19.921875,8.359375 C22.526055,7.213536 25.338527,6.640625 28.359375,6.640625 C31.380223,6.640625 34.192695,7.213536 36.796875,8.359375 C39.453138,9.45313 41.757803,10.989573 43.710938,12.96875 C45.664072,14.947927 47.213536,17.23957 48.359375,19.84375 C49.45313,22.500013 50,25.312485 50,28.28125 C50,31.302098 49.45313,34.11457 48.359375,36.71875 C47.26562,39.32293 45.703135,41.640615 43.671875,43.671875 C43.671875,43.671875 43.671875,43.671875 43.671875,43.671875 C43.671875,43.671875 43.671875,43.671875 43.671875,43.671875 C41.692698,45.651052 39.401055,47.200515 36.796875,48.320312 C34.192695,49.44011 31.380223,50 28.359375,50 C25.338527,50 22.526055,49.427089 19.921875,48.28125 C17.265612,47.135411 14.960947,45.585947 13.007812,43.632812 C11.054678,41.679678 9.505214,39.375013 8.359375,36.71875 C7.26562,34.11457 6.71875,31.302098 6.71875,28.28125 Z" id="Shape"></path>
        </g>
    </g>
</svg>