<?xml version="1.0" encoding="UTF-8"?>
<svg width="24px" height="24px" viewBox="0 0 24 24" version="1.1" xmlns="http://www.w3.org/2000/svg" xmlns:xlink="http://www.w3.org/1999/xlink">
    <!-- Generator: Sketch 51.3 (57544) - http://www.bohemiancoding.com/sketch -->
    <title>Icons/ic_user</title>
    <desc>Created with Sketch.</desc>
    <defs></defs>
    <g id="Icons/ic_user" stroke="none" stroke-width="1" fill="none" fill-rule="evenodd">
        <path d="M10.0551272,11.9113607 C8.58345593,11.1911062 7.57,9.67890575 7.57,7.93 C7.57,5.48337856 9.55337856,3.5 12,3.5 C14.4466214,3.5 16.43,5.48337856 16.43,7.93 C16.43,9.67978544 15.4155243,11.1926274 13.9426517,11.9124469 C14.9053268,12.219682 15.7906126,12.7537879 16.5184123,13.4815877 C17.7167698,14.6799451 18.39,16.3052666 18.39,18 C18.39,18.2761424 18.1661424,18.5 17.89,18.5 C17.6138576,18.5 17.39,18.2761424 17.39,18 C17.39,16.5704831 16.8221266,15.1995155 15.8113056,14.1886944 C14.8004845,13.1778734 13.4295169,12.61 12,12.61 C9.0231852,12.61 6.61,15.0231852 6.61,18 C6.61,18.2761424 6.38614237,18.5 6.11,18.5 C5.83385763,18.5 5.61,18.2761424 5.61,18 C5.61,15.149051 7.47704085,12.7341728 10.0551272,11.9113607 Z M12,11.36 C13.8943367,11.36 15.43,9.82433669 15.43,7.93 C15.43,6.03566331 13.8943367,4.5 12,4.5 C10.1056633,4.5 8.57,6.03566331 8.57,7.93 C8.57,9.82433669 10.1056633,11.36 12,11.36 Z" id="Combined-Shape" fill="#000000" fill-rule="nonzero"></path>
    </g>
</svg>